<svg width="96" height="96" viewBox="0 0 96 96" fill="none" xmlns="http://www.w3.org/2000/svg">
  <rect width="96" height="96" rx="22" fill="#06111D"/>
  <circle cx="48" cy="48" r="26" fill="#25D4C8" fill-opacity="0.12"/>
  <path d="M28 28H44L52 36H68V50C68 61.046 59.046 70 48 70C36.954 70 28 61.046 28 50V28Z" fill="#10273A" stroke="#25D4C8" stroke-width="3"/>
  <path d="M44 36C44 31.582 47.582 28 52 28H56V36H44Z" fill="#FF8B4A"/>
  <path d="M37 54C40.5 50.5 44 49 48 49C52 49 55.5 50.5 59 54" stroke="#FFF4E8" stroke-width="4" stroke-linecap="round"/>
  <circle cx="48" cy="58" r="5" fill="#FF8B4A"/>
  <path d="M20 74C26 68 32 68 38 74C44 80 52 80 58 74C64 68 70 68 76 74V78H20V74Z" fill="#FFD36A"/>
</svg>
